<svg width="102" height="24" viewBox="0 0 102 24" fill="none" xmlns="http://www.w3.org/2000/svg">
<g clip-path="url(#clip0_2089_50)">
<path d="M6.31863 0.870565L0 18.7724H2.74326L4.57497 13.5044H11.4433L13.2783 18.7735H16.1096L9.792 0.870565H6.31863ZM5.43714 11.0237L8.0172 3.60002L10.5844 11.0237H5.43714ZM27.8771 7.18693C28.2927 7.97238 28.4967 8.85384 28.4687 9.74511V18.7473H25.7502V10.2055C25.7502 9.24547 25.5054 8.55602 25.0201 8.12184C24.483 7.6746 23.8014 7.44634 23.1078 7.48147C22.6376 7.48147 22.1716 7.57202 21.7357 7.74984C21.289 7.93241 20.9072 8.24807 20.6405 8.65529C20.3335 9.14209 20.1841 9.71426 20.2132 10.2917V18.7822H17.4688V5.35638H20.2003V6.95456C20.3541 6.71964 20.5358 6.50493 20.7414 6.31529C21.1816 5.91493 21.6938 5.6062 22.2521 5.40765C22.8287 5.19427 23.4379 5.08606 24.0516 5.08802C24.8265 5.07657 25.5921 5.26101 26.2795 5.62475C26.9484 5.98475 27.5035 6.53238 27.8771 7.20111V7.18802V7.18693ZM39.255 3.86293C38.7157 4.20831 38.3255 4.74866 38.163 5.37493C37.5357 5.17127 36.8804 5.07073 36.2218 5.07711C35.2952 5.05886 34.3772 5.26057 33.5408 5.6662C32.7829 6.03778 32.1388 6.61217 31.678 7.32765C31.2025 8.09164 30.9617 8.98225 30.9865 9.88584C30.9618 10.7695 31.1938 11.6422 31.6533 12.3917C31.8863 12.7604 32.174 13.0898 32.5058 13.3702C32.465 13.3898 32.4242 13.4051 32.3834 13.428C31.9362 13.6586 31.5547 14.0019 31.2754 14.4251C30.9693 14.8987 30.8155 15.4571 30.8351 16.0233C30.8523 16.4346 30.9597 16.8371 31.1497 17.2004C31.3612 17.6149 31.6898 17.9553 32.0946 18.1778C31.6714 18.2725 31.2731 18.4581 30.9264 18.7222C30.6395 18.9384 30.4092 19.2228 30.2557 19.5505C30.1022 19.8783 30.0302 20.2393 30.046 20.6018C30.046 21.6906 30.5699 22.5262 31.6189 23.1077C32.6679 23.6902 34.0669 23.9869 35.8192 24C37.8141 24 39.4042 23.6204 40.5896 22.8622C41.1495 22.5277 41.61 22.0457 41.9225 21.4671C42.2349 20.8885 42.3876 20.2348 42.3644 19.5753C42.3859 19.1231 42.3103 18.6716 42.1429 18.2521C41.9755 17.8326 41.7202 17.4551 41.3948 17.1458C40.6789 16.5237 39.7557 16.2036 38.8148 16.2513H37.9719C37.5779 16.2513 37.1591 16.2698 36.7125 16.2895L35.5046 16.3277H34.7498C34.345 16.3473 33.9435 16.2502 33.5913 16.0462C33.4548 15.9609 33.3432 15.84 33.2681 15.6962C33.193 15.5523 33.157 15.3907 33.164 15.228C33.1621 15.0629 33.196 14.8994 33.2634 14.7491C33.3307 14.5988 33.4299 14.4655 33.5537 14.3586C33.6364 14.2822 33.7255 14.2124 33.8178 14.1513C34.5325 14.4308 35.2928 14.5704 36.0586 14.5626C36.9755 14.5789 37.8839 14.3815 38.7138 13.9877C39.4747 13.62 40.1197 13.0443 40.5767 12.3251C41.0473 11.5589 41.2879 10.6699 41.2692 9.76693C41.2923 8.88508 41.0649 8.01514 40.6143 7.26111C40.377 6.88333 40.0828 6.54576 39.7424 6.26075C39.8519 6.14239 39.9867 6.05129 40.1365 5.99456C40.64 5.80038 41.4109 5.80911 42.4524 6.03275V3.47566C41.1511 3.20511 40.086 3.3382 39.255 3.87493V3.86293ZM38.4121 18.6829C38.8158 18.6557 39.2163 18.7833 39.532 19.0418C39.6626 19.1625 39.7652 19.3111 39.8326 19.4769C39.9 19.6427 39.9304 19.8216 39.9217 20.0007C39.921 20.3352 39.8227 20.6619 39.6393 20.9396C39.4558 21.2173 39.1954 21.4334 38.891 21.5607C38.2017 21.9186 37.2461 22.0975 36.021 22.0975C34.8443 22.0975 33.9628 21.9251 33.3776 21.5869C33.1202 21.468 32.901 21.2776 32.7453 21.0377C32.5895 20.7979 32.5035 20.5182 32.4972 20.2309C32.5101 19.8491 32.6583 19.4847 32.9116 19.2055C33.1887 18.8847 33.6858 18.7058 34.4094 18.7058L38.4121 18.684V18.6829ZM38.06 11.7524C37.8052 11.9969 37.5043 12.1865 37.1755 12.3097C36.8467 12.4329 36.4967 12.4871 36.1467 12.4691C35.7916 12.4892 35.4363 12.4347 35.1029 12.3092C34.7695 12.1836 34.4651 11.9896 34.2087 11.7393C33.9708 11.4838 33.7858 11.1824 33.6647 10.853C33.5435 10.5236 33.4886 10.1728 33.5032 9.82147C33.4832 9.46955 33.5356 9.11724 33.657 8.78703C33.7785 8.45682 33.9664 8.15597 34.2087 7.90365C34.4687 7.66031 34.7743 7.4726 35.1073 7.35172C35.4402 7.23084 35.7937 7.17925 36.1467 7.20002C36.4968 7.18113 36.847 7.23495 37.176 7.35817C37.5049 7.4814 37.8057 7.67146 38.06 7.91675C38.2994 8.17105 38.4853 8.47226 38.6064 8.80198C38.7275 9.13171 38.7812 9.48305 38.7643 9.83456C38.7823 10.1882 38.7292 10.5418 38.6081 10.8738C38.4869 11.2058 38.3005 11.5092 38.06 11.7655V11.7524ZM52.6588 5.78184C51.7576 5.30562 50.7542 5.06386 49.7384 5.0782C48.6401 5.06289 47.5564 5.33608 46.5925 5.87129C45.6209 6.42112 44.8289 7.24782 44.3142 8.24947C43.7128 9.47395 43.4272 10.8335 43.4842 12.2007C43.456 13.4478 43.7055 14.6852 44.2143 15.8204C44.6682 16.8145 45.4099 17.6441 46.3402 18.1986C47.3677 18.7767 48.5284 19.0637 49.7008 19.0298C51.0298 19.068 52.3372 18.6823 53.4394 17.9269C54.4859 17.1723 55.214 16.0446 55.4783 14.7687H52.6846C52.5322 15.3415 52.1789 15.8378 51.6904 16.1618C51.1238 16.5154 50.4661 16.689 49.8018 16.6604C48.625 16.6604 47.7274 16.2469 47.109 15.42C46.5593 14.6369 46.2455 13.7083 46.206 12.7473H55.5159C55.532 12.4767 55.5417 12.1855 55.5417 11.8789C55.5417 10.2927 55.2765 9.00111 54.7482 8.00402C54.2877 7.06991 53.5592 6.29966 52.6588 5.79493V5.78184ZM47.1347 8.56802C47.4384 8.17135 47.831 7.8542 48.2798 7.64299C48.7286 7.43178 49.2206 7.33264 49.7148 7.35384C50.3066 7.3449 50.8896 7.4995 51.4016 7.80111C51.9266 8.1262 52.3324 8.61493 52.5601 9.19529C52.7426 9.66002 52.8414 10.1531 52.8553 10.6527H46.3166C46.4132 9.90329 46.6945 9.19093 47.1347 8.58111V8.56802ZM57.9199 0.857474H60.6642V18.7593H57.9199V0.857474ZM66.5008 16.2535H74.6092V18.7604H63.7554V0.857474H66.4997L66.5008 16.2535ZM76.5215 5.34547H79.2626V18.7746H76.5215V5.34547ZM79.0393 0.486565C79.1896 0.641345 79.3079 0.825143 79.3872 1.02712C79.4665 1.22909 79.5052 1.44516 79.501 1.66256C79.5091 1.99377 79.4198 2.31992 79.2444 2.59921C79.069 2.8785 78.8155 3.09821 78.5164 3.2302C78.3192 3.31341 78.1071 3.35426 77.8936 3.3502C77.6756 3.35638 77.4587 3.31642 77.2566 3.23285C77.0546 3.14927 76.8719 3.02392 76.7201 2.86475C76.5681 2.70581 76.4489 2.51756 76.3696 2.31109C76.2903 2.10462 76.2525 1.88411 76.2584 1.66256C76.254 1.44513 76.2926 1.22902 76.3719 1.02701C76.4513 0.825013 76.5696 0.641235 76.7201 0.486565C76.8719 0.327393 77.0546 0.202039 77.2566 0.118466C77.4587 0.0348929 77.6756 -0.00507205 77.8936 0.00111022C78.1073 -0.00345114 78.3196 0.0373718 78.5169 0.120966C78.7142 0.20456 78.8921 0.329083 79.0393 0.486565ZM83.9825 9.05456C83.9705 9.24287 84.0005 9.4315 84.0702 9.6064C84.1399 9.7813 84.2476 9.93797 84.3851 10.0647C84.7148 10.3222 85.097 10.5011 85.505 10.5884C85.9828 10.7084 86.5325 10.8153 87.1542 10.908C87.7222 10.9909 88.2848 11.1066 88.8399 11.2538C89.3788 11.3924 89.8964 11.6073 90.3752 11.8931C90.8401 12.1669 91.2267 12.5586 91.4962 13.0309C91.7936 13.596 91.9364 14.232 91.9106 14.8724C91.9106 16.2033 91.4371 17.2255 90.489 17.9422C89.541 18.6578 88.2826 19.0157 86.7129 19.0157C85.6582 19.0497 84.6092 18.8448 83.6422 18.4157C82.8807 18.0683 82.2278 17.5151 81.7546 16.8164C81.3378 16.1849 81.0746 15.4617 80.9869 14.7066H83.655C83.7753 15.3175 84.1103 15.8629 84.5988 16.2415C85.1024 16.6342 85.8153 16.8295 86.7387 16.8295C87.3969 16.866 88.0518 16.7109 88.6262 16.3822C88.8432 16.2507 89.0218 16.0629 89.1435 15.8379C89.2652 15.613 89.3257 15.3592 89.3187 15.1026C89.3385 14.8196 89.2651 14.5381 89.1102 14.3021C88.9553 14.0661 88.7277 13.8891 88.463 13.7989C87.7049 13.5318 86.9198 13.3514 86.1224 13.2611C85.5627 13.1872 85.0078 13.0805 84.4603 12.9415C83.9266 12.812 83.4139 12.6056 82.9378 12.3284C82.482 12.0583 82.1009 11.6756 81.8298 11.2157C81.5308 10.6557 81.3872 10.0237 81.4143 9.38729C81.3869 8.54877 81.6157 7.7222 82.0692 7.02111C82.5229 6.36838 83.1521 5.86236 83.8816 5.56365C84.7122 5.22013 85.6026 5.05056 86.4992 5.06511C87.301 5.04921 88.0988 5.18345 88.8527 5.46111C89.4841 5.69565 90.066 6.05129 90.5642 6.50947C91.0023 6.91093 91.3609 7.39311 91.6218 7.92875C91.8558 8.39784 91.989 8.91275 92.0115 9.43747H89.3434C89.234 8.83701 88.9279 8.29182 88.4748 7.89056C88.0153 7.46511 87.3238 7.25129 86.3983 7.25129C85.7771 7.21878 85.1615 7.38431 84.6375 7.72475C84.4264 7.87109 84.2561 8.07051 84.1434 8.30355C84.0307 8.5366 83.9794 8.79534 83.9943 9.05456H83.9825ZM98.0027 7.74984V14.016C97.9705 14.6367 98.1154 15.2531 98.4182 15.7942C98.6952 16.2284 99.2557 16.4324 100.092 16.4324C100.516 16.4281 100.938 16.3769 101.35 16.2797V18.7091C100.727 18.816 100.095 18.876 99.4629 18.888C98.022 18.888 96.9601 18.5007 96.2783 17.724C95.5966 16.9495 95.2573 15.8106 95.2583 14.3095V7.73784H92.7674V5.33456H95.2583V2.1382H98.0027V5.33456H101.378V7.73784L98.0027 7.74984Z" fill="#002B31"/>
</g>
<defs>
<clipPath id="clip0_2089_50">
<rect width="102" height="24" fill="white"/>
</clipPath>
</defs>
</svg>
