<svg width="98" height="24" viewBox="0 0 98 24" fill="none" xmlns="http://www.w3.org/2000/svg">
<path fill-rule="evenodd" clip-rule="evenodd" d="M97.8481 18.9479C93.7529 25.9088 87.2672 23.889 85.3193 22.3075C84.4903 22.8714 83.0367 24.1074 81.0984 23.9647C76.9704 23.6609 75.4921 17.7468 75.4921 17.7468C75.5218 17.7705 74.2625 18.1825 73.5819 18.1751C73.5731 19.9095 72.0777 24.0525 68.0419 23.9995C63.5132 23.9403 62.5925 17.1761 62.5925 17.1761C62.5925 17.1761 62.1418 17.8034 60.4282 18.4284C60.5145 17.0959 60.4514 23.7967 55.0235 23.8952C50.7324 23.9731 49.5741 17.0717 49.5741 17.0717C49.5741 17.0717 48.8297 17.847 47.387 18.1159C47.4787 16.7617 47.3296 23.9179 41.9011 23.8952C38.2325 23.8799 36.9789 19.6439 37.0764 19.056C37.2008 18.3067 35.8365 24.0005 32.2731 23.9118C30.8026 23.8685 29.7063 22.8011 29.0183 21.378C28.0974 22.4345 26.7603 23.9118 25.2604 23.9118C22.568 23.9118 21.381 21.6542 21.5821 15.2059C21.5992 14.4411 21.5441 14.1403 20.7858 14.0259C20.3306 13.9497 19.8645 13.8056 19.3712 13.7296C19.2132 14.2585 17.8724 23.7398 13.2619 23.9197C11.7151 23.9801 10.8694 22.6368 10.1748 21.6398C9.11009 23.0519 7.70462 23.9647 5.7024 23.9647C2.3108 23.9647 0 21.2159 0 17.8252C0 14.4343 2.3108 11.6858 5.7024 11.6858C6.30207 11.6858 6.47041 11.7719 7.01824 11.9322C5.89161 1.64832 8.55228 0.0410923 10.8798 0.0410923C13.1143 0.0410923 16.9318 5.24063 11.5603 18.4294C12.7529 22.3633 15.3238 22.1408 16.5593 14.0427C16.8107 12.3966 16.1384 10.1753 17.1842 9.86524C19.0958 9.29865 19.2987 10.9986 20.195 11.2818C21.1427 11.5812 21.6959 11.552 22.6058 11.7425C24.1605 12.0468 24.7672 12.8842 24.5778 14.7491C24.3503 17.1087 23.9524 20.5432 25.1656 20.9618C26.0405 21.2658 27.6379 19.4468 27.9183 18.4515C28.1985 17.4562 28.257 17.1156 28.2819 16.3856C28.3198 14.8253 28.3674 13.6816 28.6328 12.5017C28.7464 12.0451 28.8758 11.7427 29.3911 11.722C29.8151 11.7112 30.5904 11.5832 30.9318 11.8495C31.3867 12.1922 31.3298 12.54 31.2776 13.4551C30.7485 26.5034 34.8207 19.9896 36.0349 14.774C35.6025 8.87636 35.8993 0.149088 39.5857 0.00271624C41.5029 -0.0734055 42.3504 1.46639 42.4437 2.6157C42.7074 5.86178 41.2303 11.2389 39.2877 14.8549C38.1775 22.2333 44.1419 23.6922 45.0957 17.8028C43.5352 17.0589 41.8487 14.0481 43.2211 12.5809C43.9912 11.7574 47.1967 12.9404 47.2492 15.5204C48.8215 15.0989 49.0315 14.2088 49.0533 14.3563C48.621 8.45866 49.0219 0.149165 52.7085 0.0027916C54.6255 -0.0733301 55.4729 1.46646 55.5661 2.61578C55.8298 5.86185 54.3527 11.2389 52.4104 14.8551C51.3 22.2333 57.2646 23.6923 58.2182 17.8029C57.0628 17.5794 54.6239 14.377 56.0311 12.5809C56.7831 11.6212 59.9769 13.6171 60.3345 15.6059C61.845 15.1773 62.0501 14.3156 62.0718 14.4606C61.6394 8.56318 62.0403 0.253684 65.7269 0.107311C67.6439 0.0311896 68.4913 1.57098 68.5845 2.72029C68.8482 5.96637 67.3711 11.3436 65.4285 14.9596C64.3184 22.338 70.2829 23.7967 71.2367 17.9073C69.649 17.6422 67.3925 14.2609 69.2086 12.5311C69.9342 11.84 72.7067 13.6341 73.3557 15.6809C74.2574 15.6461 74.8187 15.3343 74.9391 15.3029C73.4995 8.37939 74.5712 0.0722368 78.5369 0.00289311C80.6804 -0.0345504 82.776 1.16465 81.8562 7.75142C80.9782 14.036 77.8222 16.6733 77.8295 16.7137C78.0132 17.4666 79.6326 23.7674 83.7107 20.4429C83.4996 19.9636 83.2883 19.4741 83.1702 18.881C82.4942 15.4261 83.8219 11.5237 87.4305 10.893C89.498 10.5317 91.4456 11.5409 91.7535 13.8159C92.2602 17.5387 88.9072 20.2347 87.6321 20.8196C87.061 20.4943 92.8088 24.1901 96.22 16.7837C96.4178 16.3609 96.6562 16.3967 96.9652 16.6146C97.1834 16.7686 98.4262 17.9489 97.8481 18.9479ZM8.16949 16.9104C7.99592 16.3902 7.63973 15.2439 7.51378 14.7472C6.82009 14.1425 6.32496 14.0442 5.43455 14.0442C3.45579 14.0442 2.29112 15.8784 2.29112 17.8562C2.29112 19.8338 3.55994 21.6683 5.53872 21.6683C7.25355 21.6683 8.55869 20.4994 8.95688 18.8446C8.67817 18.1995 8.4017 17.6067 8.16949 16.9104ZM10.8313 2.7633C9.44092 2.7633 8.96927 6.08853 9.0608 8.92526C9.14176 11.4333 9.8408 13.6413 10.2034 14.6306C10.2955 14.7546 10.2784 14.6739 10.3606 14.8054C12.7747 9.50244 11.7734 2.7633 10.8313 2.7633ZM39.7843 2.86776C37.9873 2.66114 37.9989 10.1661 38.2219 11.8495C39.1553 10.3527 40.7765 3.27079 39.7843 2.86776ZM52.9067 2.86776C51.1097 2.66114 51.1213 10.1661 51.3445 11.8495C52.2777 10.3527 53.8991 3.27079 52.9067 2.86776ZM65.9253 2.97218C64.1281 2.76555 64.1397 10.2705 64.3629 11.9541C65.2961 10.4571 66.9175 3.37518 65.9253 2.97218ZM78.7353 2.42843C75.9354 2.9921 76.5874 12.351 77.0127 13.9924C80.3106 9.45115 80.3786 2.25785 78.7353 2.42843ZM89.2284 14.1239C89.086 13.5271 88.3742 13.2082 87.8829 13.2868C86.4771 13.4793 85.1137 15.2346 85.6414 17.907C85.7589 18.5022 86.0529 19.0501 86.0481 19.0318C89.1943 16.9157 89.4618 15.2482 89.2284 14.1239ZM29.9422 9.65634C29.5404 9.65642 29.1477 9.53703 28.8135 9.3133C28.4794 9.08955 28.219 8.7715 28.0651 8.39936C27.9113 8.02723 27.8711 7.61771 27.9495 7.22263C28.0277 6.82754 28.2213 6.46462 28.5054 6.17976C28.7894 5.8949 29.1514 5.70091 29.5455 5.62231C29.9395 5.54371 30.348 5.58403 30.7193 5.73819C31.0905 5.89234 31.4077 6.1534 31.6309 6.48834C31.8541 6.82328 31.9733 7.21707 31.9733 7.61988C31.9733 7.8873 31.9208 8.15211 31.8187 8.39916C31.7167 8.64624 31.5671 8.87072 31.3784 9.05983C31.1898 9.24893 30.9659 9.39894 30.7195 9.50129C30.4731 9.60365 30.209 9.65633 29.9422 9.65634Z" fill="#0D0C22"/>
</svg>
