<svg width="69" height="24" viewBox="0 0 69 24" fill="none" xmlns="http://www.w3.org/2000/svg">
<path fill-rule="evenodd" clip-rule="evenodd" d="M30.0249 0.689127C29.1027 1.57643 29.1027 3.0973 30.0249 4.01567C30.9471 4.93451 32.4736 4.93451 33.3958 4.01567C34.3175 3.0973 34.3175 1.57643 33.3958 0.689127C32.4736 -0.229709 30.9471 -0.229709 30.0249 0.689127ZM48.5532 6.90622L46.3909 7.25455C42.2659 8.19105 39.5859 9.53288 39.5859 14.0441V23.096L43.3384 23.8562V14.6094C43.3384 12.5013 44.533 11.5491 46.3909 11.1971L48.5532 10.8023V6.90622ZM19.9924 23.1332L23.745 23.8933V13.66C23.745 8.74898 19.9291 6.97487 17.2896 6.97487C15.5089 6.97487 14.1101 7.41829 12.8378 8.65395C11.5343 7.41829 9.97621 6.94334 8.70394 6.94334C6.89164 6.94334 5.30141 7.73505 4.25212 9.0027V7.29167L0.5 8.02035V23.1332L4.25212 23.8933V13.5014C4.25212 11.8538 5.46062 10.6817 7.27338 10.6817C9.05403 10.6817 10.2625 11.8538 10.2625 13.5014V23.1332L14.0146 23.8933V13.5014C14.0146 11.8538 15.2227 10.6817 17.0037 10.6817C18.7844 10.6817 19.9924 11.8538 19.9924 13.5014V23.1332ZM68.5 15.4559C68.5 20.1679 64.6538 24 59.9562 24C55.227 24 51.3808 20.1679 51.3808 15.4559C51.3808 10.7755 55.227 6.94334 59.9562 6.94334C64.6538 6.94334 68.5 10.7755 68.5 15.4559ZM59.9562 20.4503C57.2133 20.4503 54.9747 18.2203 54.9747 15.4559C54.9747 12.7231 57.2133 10.5241 59.9562 10.5241C62.6991 10.5241 64.9057 12.7231 64.9057 15.4559C64.9057 18.2203 62.6991 20.4503 59.9562 20.4503ZM33.5545 24L29.8024 23.1332V7.91272L33.5545 7.15252V24Z" fill="black"/>
</svg>
