<svg width="107" height="24" viewBox="0 0 107 24" fill="none" xmlns="http://www.w3.org/2000/svg">
<g clip-path="url(#clip0_2089_40)">
<path d="M59.238 0.359H65.736L62.466 23.681H55.968L59.238 0.359ZM51.045 0.359L46.66 13.794L44.747 0.359H40.202L34.46 13.754L33.743 0.36H27.444L29.637 23.682H34.86L41.318 8.932L43.59 23.682H48.733L57.225 0.359H51.045ZM105.603 13.914H90.174C90.254 16.944 92.068 18.937 94.739 18.937C96.753 18.937 98.347 17.86 99.583 15.807L104.791 18.175C103.001 21.702 99.229 24 94.58 24C88.241 24 84.035 19.734 84.035 12.877C84.035 5.342 88.978 0 95.955 0C102.095 0 105.962 4.146 105.962 10.605C105.962 11.681 105.842 12.757 105.603 13.914ZM99.823 9.448C99.823 6.738 98.307 5.023 95.876 5.023C93.364 5.023 91.291 6.817 90.732 9.448H99.823ZM7.132 7.387L0.5 15.139H12.344L13.674 11.484H8.6L11.7 7.898L11.71 7.803L9.694 4.332H18.766L11.734 23.682H16.546L25.038 0.358H3.1L7.133 7.386L7.132 7.387ZM76.3 5.023C78.592 5.023 80.6 6.256 82.355 8.369L83.276 1.794C81.643 0.688 79.43 0 76.5 0C70.68 0 67.41 3.409 67.41 7.734C67.41 10.734 69.085 12.568 71.836 13.754L73.151 14.352C75.603 15.399 76.261 15.917 76.261 17.023C76.261 18.169 75.155 18.897 73.471 18.897C70.689 18.907 68.437 17.482 66.743 15.05L65.803 21.749C67.734 23.22 70.208 24 73.47 24C79.002 24 82.4 20.81 82.4 16.385C82.4 13.375 81.065 11.442 77.696 9.927L76.261 9.249C74.267 8.362 73.59 7.874 73.59 6.897C73.59 5.841 74.517 5.023 76.3 5.023Z" fill="#163300"/>
</g>
<defs>
<clipPath id="clip0_2089_40">
<rect width="106" height="24" fill="white" transform="translate(0.5)"/>
</clipPath>
</defs>
</svg>
