<svg width="134" height="24" viewBox="0 0 134 24" fill="none" xmlns="http://www.w3.org/2000/svg">
<g clip-path="url(#clip0_2884_297)">
<path d="M25 15.8333L20.8853 17.9967L21.6713 13.4147L18.338 10.17L22.938 9.50332L24.9953 5.33466L27.0527 9.50332L31.6527 10.17L28.3193 13.4147L29.1053 17.9967L25 15.8333Z" fill="#E3AD54" stroke="#E3AD54" stroke-width="1.75" stroke-linecap="round" stroke-linejoin="round"/>
</g>
<g clip-path="url(#clip1_2884_297)">
<path d="M53 15.8333L48.8853 17.9967L49.6713 13.4147L46.338 10.17L50.938 9.50332L52.9953 5.33466L55.0527 9.50332L59.6527 10.17L56.3193 13.4147L57.1053 17.9967L53 15.8333Z" fill="#E3AD54" stroke="#E3AD54" stroke-width="1.75" stroke-linecap="round" stroke-linejoin="round"/>
</g>
<g clip-path="url(#clip2_2884_297)">
<path d="M81 15.8333L76.8853 17.9967L77.6713 13.4147L74.338 10.17L78.938 9.50332L80.9953 5.33466L83.0527 9.50332L87.6527 10.17L84.3193 13.4147L85.1053 17.9967L81 15.8333Z" fill="#E3AD54" stroke="#E3AD54" stroke-width="1.75" stroke-linecap="round" stroke-linejoin="round"/>
</g>
<g clip-path="url(#clip3_2884_297)">
<path d="M109 15.8333L104.885 17.9967L105.671 13.4147L102.338 10.17L106.938 9.50332L108.995 5.33466L111.053 9.50332L115.653 10.17L112.319 13.4147L113.105 17.9967L109 15.8333Z" fill="#E3AD54" stroke="#E3AD54" stroke-width="1.75" stroke-linecap="round" stroke-linejoin="round"/>
</g>
<defs>
<clipPath id="clip0_2884_297">
<rect width="16" height="16" fill="white" transform="translate(17 4)"/>
</clipPath>
<clipPath id="clip1_2884_297">
<rect width="16" height="16" fill="white" transform="translate(45 4)"/>
</clipPath>
<clipPath id="clip2_2884_297">
<rect width="16" height="16" fill="white" transform="translate(73 4)"/>
</clipPath>
<clipPath id="clip3_2884_297">
<rect width="16" height="16" fill="white" transform="translate(101 4)"/>
</clipPath>
</defs>
</svg>
