<svg width="343" height="200" viewBox="0 0 343 200" fill="none" xmlns="http://www.w3.org/2000/svg">
<line x1="6.95193" y1="2.95046e-08" x2="6.95193" y2="200" stroke="#F4EFF6" stroke-width="0.856749"/>
<line x1="15.651" y1="2.95046e-08" x2="15.651" y2="200" stroke="#F4EFF6" stroke-width="0.856749"/>
<line x1="24.3463" y1="1.4977e-08" x2="24.3463" y2="200" stroke="#F4EFF6" stroke-width="0.856749"/>
<line x1="33.0456" y1="1.4981e-08" x2="33.0456" y2="200" stroke="#F4EFF6" stroke-width="0.856749"/>
<line x1="41.7409" y1="2.95046e-08" x2="41.7409" y2="200" stroke="#F4EFF6" stroke-width="0.856749"/>
<line x1="50.4362" y1="1.4981e-08" x2="50.4362" y2="200" stroke="#F4EFF6" stroke-width="0.856749"/>
<line x1="59.1354" y1="1.4977e-08" x2="59.1354" y2="200" stroke="#F4EFF6" stroke-width="0.856749"/>
<line x1="67.8346" y1="1.4977e-08" x2="67.8346" y2="200" stroke="#F4EFF6" stroke-width="0.856749"/>
<line x1="76.5299" y1="1.4977e-08" x2="76.5299" y2="200" stroke="#F4EFF6" stroke-width="0.856749"/>
<line x1="85.2292" y1="2.95046e-08" x2="85.2291" y2="200" stroke="#F4EFF6" stroke-width="0.856749"/>
<line x1="93.9245" y1="1.4981e-08" x2="93.9245" y2="200" stroke="#F4EFF6" stroke-width="0.856749"/>
<line x1="102.624" y1="1.4977e-08" x2="102.624" y2="200" stroke="#F4EFF6" stroke-width="0.856749"/>
<line x1="111.319" y1="1.4981e-08" x2="111.319" y2="200" stroke="#F4EFF6" stroke-width="0.856749"/>
<line x1="120.014" y1="1.4977e-08" x2="120.014" y2="200" stroke="#F4EFF6" stroke-width="0.856749"/>
<line x1="128.714" y1="1.4977e-08" x2="128.714" y2="200" stroke="#F4EFF6" stroke-width="0.856749"/>
<line x1="137.409" y1="2.95046e-08" x2="137.409" y2="200" stroke="#F4EFF6" stroke-width="0.856749"/>
<line x1="146.108" y1="1.4977e-08" x2="146.108" y2="200" stroke="#F4EFF6" stroke-width="0.856749"/>
<line x1="154.807" y1="1.4981e-08" x2="154.807" y2="200" stroke="#F4EFF6" stroke-width="0.856749"/>
<line x1="163.503" y1="2.95046e-08" x2="163.503" y2="200" stroke="#F4EFF6" stroke-width="0.856749"/>
<line x1="172.202" y1="1.4977e-08" x2="172.202" y2="200" stroke="#F4EFF6" stroke-width="0.856749"/>
<line x1="180.897" y1="1.4977e-08" x2="180.897" y2="200" stroke="#F4EFF6" stroke-width="0.856749"/>
<line x1="189.592" y1="1.4977e-08" x2="189.592" y2="200" stroke="#F4EFF6" stroke-width="0.856749"/>
<line x1="198.292" y1="1.4981e-08" x2="198.292" y2="200" stroke="#F4EFF6" stroke-width="0.856749"/>
<line x1="206.991" y1="1.4977e-08" x2="206.991" y2="200" stroke="#F4EFF6" stroke-width="0.856749"/>
<line x1="215.686" y1="2.95125e-08" x2="215.686" y2="200" stroke="#F4EFF6" stroke-width="0.856749"/>
<line x1="224.385" y1="2.95046e-08" x2="224.385" y2="200" stroke="#F4EFF6" stroke-width="0.856749"/>
<line x1="233.081" y1="2.95046e-08" x2="233.081" y2="200" stroke="#F4EFF6" stroke-width="0.856749"/>
<line x1="241.78" y1="1.4977e-08" x2="241.78" y2="200" stroke="#F4EFF6" stroke-width="0.856749"/>
<line x1="250.475" y1="1.4977e-08" x2="250.475" y2="200" stroke="#F4EFF6" stroke-width="0.856749"/>
<line x1="259.174" y1="2.95125e-08" x2="259.174" y2="200" stroke="#F4EFF6" stroke-width="0.856749"/>
<line x1="267.87" y1="1.4977e-08" x2="267.87" y2="200" stroke="#F4EFF6" stroke-width="0.856749"/>
<line x1="276.569" y1="1.4981e-08" x2="276.569" y2="200" stroke="#F4EFF6" stroke-width="0.856749"/>
<line x1="285.264" y1="1.4977e-08" x2="285.264" y2="200" stroke="#F4EFF6" stroke-width="0.856749"/>
<line x1="293.964" y1="1.4977e-08" x2="293.964" y2="200" stroke="#F4EFF6" stroke-width="0.856749"/>
<line x1="302.663" y1="1.4977e-08" x2="302.663" y2="200" stroke="#F4EFF6" stroke-width="0.856749"/>
<line x1="311.358" y1="1.4977e-08" x2="311.358" y2="200" stroke="#F4EFF6" stroke-width="0.856749"/>
<line x1="320.053" y1="1.4981e-08" x2="320.053" y2="200" stroke="#F4EFF6" stroke-width="0.856749"/>
<line x1="328.749" y1="1.4977e-08" x2="328.749" y2="200" stroke="#F4EFF6" stroke-width="0.856749"/>
<line x1="337.448" y1="2.95125e-08" x2="337.448" y2="200" stroke="#F4EFF6" stroke-width="0.856749"/>
<line x1="343" y1="6.51529" y2="6.51529" stroke="#F4EFF6" stroke-width="0.856749"/>
<line x1="343" y1="13.4713" y2="13.4713" stroke="#F4EFF6" stroke-width="0.856749"/>
<line x1="343" y1="20.4284" y2="20.4284" stroke="#F4EFF6" stroke-width="0.856749"/>
<line x1="343" y1="27.3844" y2="27.3844" stroke="#F4EFF6" stroke-width="0.856749"/>
<line x1="343" y1="34.3415" y2="34.3415" stroke="#F4EFF6" stroke-width="0.856749"/>
<line x1="343" y1="41.2975" y2="41.2975" stroke="#F4EFF6" stroke-width="0.856749"/>
<line x1="343" y1="48.2545" y2="48.2545" stroke="#F4EFF6" stroke-width="0.856749"/>
<line x1="343" y1="55.2106" y2="55.2106" stroke="#F4EFF6" stroke-width="0.856749"/>
<line x1="343" y1="62.1676" y2="62.1676" stroke="#F4EFF6" stroke-width="0.856749"/>
<line x1="343" y1="69.1237" y2="69.1237" stroke="#F4EFF6" stroke-width="0.856749"/>
<line x1="343" y1="76.0807" y2="76.0807" stroke="#F4EFF6" stroke-width="0.856749"/>
<line x1="343" y1="83.0368" y2="83.0368" stroke="#F4EFF6" stroke-width="0.856749"/>
<line x1="343" y1="89.9936" y2="89.9936" stroke="#F4EFF6" stroke-width="0.856749"/>
<line x1="343" y1="96.9499" y2="96.9499" stroke="#F4EFF6" stroke-width="0.856749"/>
<line x1="343" y1="103.907" y2="103.907" stroke="#F4EFF6" stroke-width="0.856749"/>
<line x1="343" y1="110.863" y2="110.863" stroke="#F4EFF6" stroke-width="0.856749"/>
<line x1="343" y1="117.82" y2="117.82" stroke="#F4EFF6" stroke-width="0.856749"/>
<line x1="343" y1="124.776" y2="124.776" stroke="#F4EFF6" stroke-width="0.856749"/>
<line x1="343" y1="131.733" y2="131.733" stroke="#F4EFF6" stroke-width="0.856749"/>
<line x1="343" y1="138.689" y2="138.689" stroke="#F4EFF6" stroke-width="0.856749"/>
<line x1="343" y1="145.646" y2="145.646" stroke="#F4EFF6" stroke-width="0.856749"/>
<line x1="343" y1="152.602" y2="152.602" stroke="#F4EFF6" stroke-width="0.856749"/>
<line x1="343" y1="159.559" y2="159.559" stroke="#F4EFF6" stroke-width="0.856749"/>
<line x1="343" y1="166.515" y2="166.515" stroke="#F4EFF6" stroke-width="0.856749"/>
<line x1="343" y1="173.471" y2="173.471" stroke="#F4EFF6" stroke-width="0.856749"/>
<line x1="343" y1="180.428" y2="180.428" stroke="#F4EFF6" stroke-width="0.856749"/>
<line x1="343" y1="187.384" y2="187.384" stroke="#F4EFF6" stroke-width="0.856749"/>
<line x1="343" y1="194.341" y2="194.341" stroke="#F4EFF6" stroke-width="0.856749"/>
</svg>
