<svg width="59" height="55" viewBox="0 0 59 55" fill="none" xmlns="http://www.w3.org/2000/svg">
<path d="M33 0C33 0 34.4346 13.3898 40.0224 18.9776C45.6102 24.5654 59 26 59 26C59 26 45.6102 27.4346 40.0224 33.0224C34.4346 38.6102 33 52 33 52C33 52 31.5654 38.6102 25.9776 33.0224C20.3898 27.4346 7 26 7 26C7 26 20.3898 24.5654 25.9776 18.9776C31.5654 13.3898 33 0 33 0Z" fill="url(#paint0_linear_2250_1202)"/>
<path d="M12 28C12 28 12.6621 34.1799 15.2411 36.7589C17.8201 39.3379 24 40 24 40C24 40 17.8201 40.6621 15.2411 43.2411C12.6621 45.8201 12 52 12 52C12 52 11.3379 45.8201 8.75891 43.2411C6.17992 40.6621 0 40 0 40C0 40 6.17992 39.3379 8.75891 36.7589C11.3379 34.1799 12 28 12 28Z" fill="url(#paint1_linear_2250_1202)"/>
<path d="M22 43C22 43 22.3311 46.09 23.6205 47.3795C24.91 48.6689 28 49 28 49C28 49 24.91 49.3311 23.6205 50.6205C22.3311 51.91 22 55 22 55C22 55 21.6689 51.91 20.3795 50.6205C19.09 49.3311 16 49 16 49C16 49 19.09 48.6689 20.3795 47.3795C21.6689 46.09 22 43 22 43Z" fill="url(#paint2_linear_2250_1202)"/>
<defs>
<linearGradient id="paint0_linear_2250_1202" x1="33" y1="0" x2="33" y2="52" gradientUnits="userSpaceOnUse">
<stop stop-color="#814BF4"/>
<stop offset="1" stop-color="#8E5CF7" stop-opacity="0"/>
</linearGradient>
<linearGradient id="paint1_linear_2250_1202" x1="12" y1="28" x2="12" y2="52" gradientUnits="userSpaceOnUse">
<stop stop-color="#814BF4"/>
<stop offset="1" stop-color="#8E5CF7" stop-opacity="0"/>
</linearGradient>
<linearGradient id="paint2_linear_2250_1202" x1="22" y1="43" x2="22" y2="55" gradientUnits="userSpaceOnUse">
<stop stop-color="#814BF4"/>
<stop offset="1" stop-color="#8E5CF7" stop-opacity="0"/>
</linearGradient>
</defs>
</svg>
